<svg xmlns="http://www.w3.org/2000/svg" width="161" height="71" viewBox="0 0 161 71" fill="none">
  <path d="M38.4311 2.43605C38.7609 2.50358 39.0907 2.5695 39.4205 2.63703C41.9278 3.19337 44.3677 3.90084 46.6731 5.01672C46.8784 5.09711 47.082 5.1759 47.294 5.2579C47.9318 5.53446 48.514 5.8689 49.1113 6.22264C49.5421 6.47347 49.5421 6.47347 50.0335 6.69857C54.9639 9.07825 58.8341 13.4356 61.2741 18.0825C61.3279 18.1821 61.3801 18.2818 61.4356 18.3847C61.821 19.1195 61.821 19.1195 61.821 19.4797H62.1575C62.1676 19.3865 62.1794 19.2948 62.1912 19.1983C62.8373 13.844 64.6648 9.30979 69.1576 5.83674C74.1048 2.12251 80.6675 0.578931 86.8262 1.23817C88.7782 1.47453 90.7301 1.71893 92.5475 2.4264C92.7494 2.49232 92.9497 2.55825 93.1566 2.62739C94.974 3.28823 96.5726 4.179 98.1039 5.32865C98.2435 5.4219 98.3832 5.51516 98.5279 5.61164C100.732 7.13753 101.961 9.42234 102.987 11.7538C103.048 11.8856 103.108 12.0159 103.171 12.1525C104.559 15.5613 104.071 19.9187 102.693 23.2148C101.826 25.0478 100.572 26.704 99.1253 28.1672H98.7887C98.75 28.2572 98.713 28.3456 98.6726 28.4389C98.1627 29.2959 97.3163 29.8458 96.4851 30.4005C96.3807 30.4697 96.2764 30.5404 96.1687 30.6128C95.9584 30.7527 95.7497 30.8925 95.5394 31.0324C95.3004 31.1932 95.0632 31.3572 94.8276 31.5212C93.9475 32.1306 93.0271 32.6725 92.1016 33.2095C91.9804 33.2803 91.8593 33.3494 91.7331 33.4201C91.0717 33.7916 90.4474 34.0826 89.697 34.2852C89.7643 34.8576 90.0318 35.1036 90.4525 35.4927C90.9388 35.9494 91.3982 36.4317 91.8643 36.9077C91.9686 37.0154 92.0747 37.1247 92.184 37.2357C92.7713 37.8386 93.3468 38.448 93.9004 39.0687C94.3934 39.5993 94.9016 40.1138 95.4098 40.6315C96.7678 42.0176 96.7678 42.0176 97.3281 42.6093C97.4156 42.7041 97.5031 42.7974 97.594 42.8938C97.769 43.1222 97.769 43.1222 97.769 43.4437C97.8649 43.4823 97.9625 43.5193 98.0618 43.5579C98.5279 43.812 98.7971 44.111 99.1471 44.4985C99.8875 45.3073 100.667 46.0694 101.469 46.8139C104.481 43.4373 105.811 38.3242 106.854 34.0955C106.893 33.9363 106.933 33.7771 106.975 33.6115C107.027 33.396 107.027 33.396 107.081 33.1774C107.199 32.8268 107.199 32.8268 107.536 32.5053C107.986 32.4747 108.421 32.4651 108.872 32.4683H109.289C109.747 32.4683 110.203 32.4715 110.66 32.4731C110.977 32.4747 111.293 32.4747 111.609 32.4747C112.444 32.4763 113.277 32.4795 114.117 32.4827C114.966 32.486 115.816 32.4876 116.674 32.4892C118.344 32.4924 120.006 32.4988 121.689 32.5053C121.993 33.0439 122.054 33.2915 121.916 33.8961C121.882 34.0424 121.85 34.1887 121.815 34.3399C121.778 34.4974 121.739 34.655 121.699 34.8174C121.66 34.9798 121.623 35.1422 121.583 35.3094C121.196 36.8964 120.686 38.4448 120.142 39.9884C120.001 40.4048 119.87 40.8229 119.742 41.2409C119.453 42.1703 119.064 43.0418 118.66 43.9261L118.377 44.5677C117.139 47.3493 115.668 50.0184 113.783 52.4463C113.607 52.6795 113.43 52.911 113.253 53.1442C113.068 53.3837 112.885 53.6233 112.7 53.8629C112.569 54.0349 112.569 54.0349 112.434 54.2102C112.22 54.4868 111.993 54.7537 111.764 55.019H111.428C111.382 55.138 111.337 55.2585 111.291 55.3807C111.1 55.8036 110.881 56.1059 110.586 56.4661C111.236 57.188 111.892 57.8907 112.606 58.5563C115.197 60.9843 115.197 60.9843 115.466 61.7721C115.633 61.8252 115.799 61.8782 115.971 61.9329C116.254 62.2079 116.254 62.2079 116.55 62.5455C116.876 62.9153 117.196 63.2626 117.56 63.6019C117.822 63.8624 117.822 63.8624 117.822 64.184C117.915 64.2177 118.007 64.2515 118.101 64.2869C118.636 64.5843 119.005 65.0008 119.41 65.4397C119.567 65.6086 119.725 65.7774 119.883 65.9462C119.959 66.0282 120.036 66.1102 120.116 66.1954C120.334 66.4221 120.563 66.6408 120.794 66.8579C121.137 67.1891 121.42 67.5139 121.702 67.8918C121.987 68.2648 122.254 68.5799 122.598 68.908L122.87 69.1684V69.49C120.464 69.5447 118.058 69.5913 115.651 69.6283C114.534 69.6444 113.413 69.6653 112.303 69.691C111.224 69.7167 110.149 69.7344 109.072 69.7473C108.661 69.7537 108.251 69.7634 107.838 69.7746C104.204 69.8727 104.204 69.8727 103.127 68.9562C102.913 68.7118 102.708 68.461 102.513 68.2037C102.309 68.0091 102.104 67.8178 101.892 67.6313C101.484 67.2357 101.102 66.8257 100.726 66.4045C100.293 65.9253 99.8522 65.5217 99.3154 65.1487C98.8224 65.377 98.3529 65.6295 97.8851 65.9028C93.7961 68.2503 93.7961 68.2503 91.7432 68.8452C91.378 68.953 91.0145 69.0591 90.6494 69.1668C90.4626 69.2215 90.2758 69.2746 90.0823 69.3308C89.6414 69.4627 89.2107 69.6074 88.7782 69.7601C88.0714 69.9901 87.3866 70.0431 86.6411 70.0914C86.0842 70.1412 85.5591 70.2538 85.0156 70.3776C81.8353 71.0834 78.1164 70.9677 74.9193 70.4531C74.6113 70.4226 74.3017 70.3969 73.9938 70.3727C71.2005 70.1589 68.3062 69.4595 65.8326 68.2021C65.5903 68.0944 65.5903 68.0944 65.3429 67.9834C61.7923 66.3932 58.2586 63.6903 56.3908 60.3459C56.0846 59.8603 55.9533 59.6931 55.4014 59.5227C55.3559 59.6256 55.3105 59.7285 55.2651 59.8346C55.0648 60.1658 55.0648 60.1658 54.56 60.3266L54.3917 60.809C53.2559 61.8397 51.935 62.6902 50.6393 63.5263C50.4508 63.6469 50.2623 63.7691 50.0739 63.8913C47.7517 65.4076 45.2276 66.4479 42.6194 67.4126C42.4124 67.4898 42.2071 67.567 41.9951 67.6458C39.7739 68.4352 37.4686 69.0302 35.1464 69.3984C34.544 69.4997 33.9551 69.6299 33.3627 69.7698C32.6122 69.9402 31.9577 69.9949 31.192 69.9804C30.943 70.0254 30.6939 70.0769 30.4449 70.1316C29.5446 70.3197 28.6444 70.3679 27.7357 70.4081C27.2225 70.4306 26.8035 70.4676 26.3138 70.6236C25.9402 70.6477 25.565 70.6638 25.1897 70.675C25.0787 70.6782 24.9659 70.6815 24.8498 70.6847C24.4796 70.6959 24.1078 70.7056 23.7376 70.7136C23.6097 70.7168 23.4801 70.72 23.3488 70.7233C18.8728 70.8374 14.4304 70.7683 9.97119 70.511C9.45291 70.4821 8.93799 70.4628 8.41971 70.4628C7.97548 70.4628 7.97548 70.4628 7.59686 70.3824C7.17282 70.3084 6.82786 70.302 6.40045 70.31C5.34706 70.3149 4.31387 70.2023 3.27058 70.0801C3.08212 70.0608 2.89365 70.0399 2.69845 70.019C2.5184 69.9981 2.33835 69.9772 2.15157 69.9563C1.98834 69.9386 1.82512 69.9193 1.65853 69.9C1.24122 69.8196 1.24122 69.8196 0.7364 69.498C0.672457 69.1025 0.672456 69.1025 0.672456 68.596C0.670773 68.4047 0.669091 68.2117 0.667408 68.014C0.669091 67.6972 0.669092 67.6972 0.670774 67.374C0.670774 67.1489 0.66909 66.9254 0.66909 66.7003C0.665724 66.0909 0.667407 65.4815 0.66909 64.8673C0.66909 64.2306 0.669091 63.5923 0.667408 62.9539C0.667408 61.8831 0.667409 60.8154 0.670774 59.7381C0.67414 58.5001 0.672455 57.262 0.66909 56.0239C0.667407 54.9611 0.667407 53.9015 0.66909 52.8403C0.66909 52.2052 0.669091 51.57 0.667408 50.943C0.665725 50.3464 0.667409 49.7499 0.670774 49.1582C0.670774 48.835 0.669091 48.5102 0.667408 48.1854C0.669091 47.9941 0.670773 47.8011 0.672456 47.6034V47.0953C0.7364 46.6804 0.7364 46.6804 0.951789 46.3862C1.47848 46.0437 2.12801 46.1321 2.7523 46.1354C2.98284 46.1338 2.98284 46.1338 3.21842 46.1338C3.7266 46.1305 4.23647 46.1321 4.74633 46.1338C5.09802 46.1338 5.45139 46.1338 5.80476 46.1321C6.54516 46.1321 7.28556 46.1321 8.02596 46.1354C8.9767 46.1386 9.92744 46.137 10.8698 46.1338C11.6001 46.1321 12.3287 46.1321 13.0573 46.1338C13.409 46.1338 13.759 46.1338 14.109 46.1321C14.5987 46.1305 15.0867 46.1338 15.5763 46.1354C15.7227 46.1354 15.8691 46.1338 16.0189 46.1321C16.4211 46.137 16.4211 46.137 17.0588 46.1981C17.4644 46.7801 17.4357 47.039 17.4307 47.732V48.052C17.429 48.4025 17.4257 48.753 17.4223 49.1019C17.4206 49.3463 17.4206 49.5891 17.4189 49.8319C17.4172 50.4735 17.4139 51.1134 17.4088 51.7614C17.4021 52.7872 17.397 53.8195 17.392 54.8325C17.3903 55.191 17.3886 55.5496 17.3853 55.9081C17.3836 56.1268 17.3819 56.3471 17.3819 56.5658C17.3802 56.7587 17.3785 56.9501 17.3769 57.1478C17.3735 57.627 17.3735 57.627 17.5636 58.0997C18.3713 58.2975 19.1622 58.2862 19.9868 58.2878C20.219 58.2878 20.219 58.2878 20.4562 58.2894C20.7861 58.2894 21.1159 58.291 21.4457 58.291C21.937 58.291 22.4284 58.2943 22.9214 58.2959C29.4672 58.3152 35.8952 57.1526 40.7583 52.6522C45.6045 48.0536 47.1863 41.7828 47.22 35.4477V35.0907V34.7274C47.2149 28.2958 45.4699 23.038 40.7583 18.3269C37.6453 15.4648 33.3375 14.1946 29.1475 13.6479C28.4997 13.5546 28.4997 13.5546 27.9948 13.3938C24.764 13.0449 21.3817 13.1977 18.1677 13.6077C17.2338 13.7251 16.3167 13.7508 15.3744 13.7154C15.0867 14.3152 14.9958 14.7798 14.9992 15.4359V15.989C15.0008 16.1803 15.0025 16.37 15.0042 16.5662C15.0059 16.7415 15.0059 16.9183 15.0059 17.1C15.0076 17.7561 15.0126 18.4137 15.0177 19.0617C15.0244 20.5313 15.0311 22.0041 15.0379 23.5155H1.23953C0.950105 22.9608 1.00732 22.3225 0.980395 21.7147C0.973664 21.5571 0.966932 21.4011 0.958519 21.2387C0.93496 20.7098 0.913085 20.1791 0.892892 19.6502C0.881113 19.3768 0.881113 19.3768 0.869334 19.097C0.733034 15.6401 0.697696 12.1831 0.692648 8.72612C0.692648 8.32898 0.690967 7.93343 0.689284 7.53628C0.687602 6.9076 0.687602 6.27891 0.689284 5.65505V4.95562C0.687602 4.63404 0.689283 4.31246 0.690966 3.99088C0.690966 3.8108 0.690965 3.6291 0.692648 3.4442C0.739764 2.88947 0.808756 2.22541 1.23953 1.82022C1.49531 1.79771 1.75277 1.78485 2.00854 1.77681C2.17513 1.77199 2.34003 1.76716 2.50999 1.76073C2.69341 1.75591 2.87514 1.75109 3.06361 1.74626C3.25207 1.73983 3.44054 1.7334 3.63573 1.72697C4.26002 1.70767 4.88431 1.68838 5.50356 1.66908C6.37521 1.64175 7.25359 1.61441 8.11178 1.58547C8.33053 1.57904 8.5476 1.571 8.77309 1.56457C10.0402 1.52276 11.2972 1.47131 12.576 1.407C12.7208 1.39896 12.8672 1.39092 13.0169 1.38288C13.1599 1.37645 13.303 1.36841 13.4511 1.36198C21.5786 0.942315 30.4466 0.487281 38.3554 2.46338L38.4311 2.43605Z" fill="#4B4C4C"/>
  <path d="M118.361 0.988811C118.625 0.990419 118.625 0.990419 118.896 0.992027C119.088 0.993635 119.281 0.99685 119.48 1.00007C119.684 1.00167 119.887 1.00328 120.097 1.00489C120.654 1.00811 121.211 1.01454 121.77 1.02097C122.352 1.0274 122.936 1.03222 123.52 1.03705C124.624 1.0467 125.725 1.05795 126.835 1.06921C128.09 1.08368 129.342 1.09493 130.604 1.10619C133.196 1.1287 135.77 1.15442 138.362 1.18176C138.813 2.27995 139.257 3.36849 139.615 4.49402C139.684 4.71269 139.755 4.93136 139.826 5.15164C139.861 5.26259 139.896 5.37514 139.933 5.4893C140.127 6.09548 140.327 6.69683 140.527 7.30622C140.61 7.55866 140.694 7.8111 140.776 8.06193C140.819 8.18895 140.861 8.31598 140.904 8.44622C141.037 8.84819 141.17 9.25016 141.301 9.65214C141.673 10.7744 142.044 11.9032 142.422 13.0126C142.937 14.545 143.425 16.0837 143.883 17.6273C144.536 19.8301 145.283 22.0008 146.054 24.1714C146.101 24.3065 146.148 24.4399 146.197 24.5782C146.239 24.6956 146.281 24.813 146.324 24.9352C146.435 25.2873 146.435 25.2873 146.518 25.6812C146.609 26.1137 146.737 26.5221 146.88 26.9418C146.935 27.1058 146.989 27.2682 147.046 27.437C147.105 27.6091 147.164 27.7827 147.225 27.9612C147.346 28.323 147.469 28.6848 147.59 29.0465C147.652 29.2266 147.713 29.4051 147.775 29.59C148.024 30.3296 148.271 31.0693 148.519 31.8089C148.578 31.9874 148.578 31.9874 148.64 32.1691C148.818 32.7093 148.985 33.2464 149.121 33.793C149.313 34.5439 149.579 35.2659 149.843 35.9958C150.669 38.3112 151.401 40.6587 152.131 43.0063C152.621 44.5563 153.119 46.1095 153.664 47.637C154.004 48.5889 154.304 49.5504 154.595 50.5151C155.467 53.3932 156.379 56.2392 157.355 59.0852C157.965 60.886 158.56 62.6869 159.138 64.4877C159.244 64.8125 159.35 65.1357 159.456 65.4605C159.606 65.9171 159.754 66.3738 159.904 66.832C159.948 66.9671 159.991 67.1037 160.039 67.2436C160.158 67.6167 160.276 67.9897 160.392 68.3643C160.429 68.4817 160.466 68.5975 160.503 68.7181C160.693 69.3677 160.725 69.805 160.56 70.4546C158.305 70.453 156.051 70.4466 153.813 70.4337C152.768 70.4289 151.726 70.424 150.683 70.424C149.675 70.4224 148.663 70.4176 147.654 70.4112C147.268 70.4096 146.883 70.408 146.498 70.4096C145.959 70.4096 145.422 70.4064 144.884 70.3999C144.643 70.4015 144.643 70.4015 144.398 70.4048C143.992 70.3983 143.629 70.3855 143.235 70.2938C142.789 69.8002 142.638 69.2808 142.464 68.6538C142.397 68.4094 142.397 68.4094 142.326 68.1601C142.256 67.898 142.256 67.898 142.183 67.6295C142.133 67.4478 142.082 67.2645 142.03 67.0764C141.598 65.5007 141.184 63.9249 140.778 62.3331C140.733 62.1563 140.687 61.9794 140.64 61.7977C140.581 61.5678 140.581 61.5678 140.521 61.333C140.4 60.8957 140.27 60.4648 140.132 60.0322C139.885 59.2508 139.659 58.4645 139.439 57.6686C139.4 57.5304 139.361 57.3905 139.321 57.249C139.2 56.81 139.077 56.3711 138.954 55.9321C138.794 55.3549 138.633 54.7793 138.471 54.1956C138.414 53.9866 138.414 53.9866 138.353 53.7727C138.126 52.9623 137.891 52.1648 137.647 51.3448C137.394 50.5055 137.17 49.6726 136.967 48.8204C136.231 45.8136 135.427 42.823 134.527 39.8484C134.187 38.7277 133.879 37.5973 133.574 36.4718C132.861 33.8188 132.124 31.1657 131.235 28.561C130.746 27.1219 130.322 25.6667 129.92 24.2036C129.889 24.0926 129.859 23.9817 129.827 23.8675C129.452 22.4976 129.083 21.1341 128.715 19.7513C128.531 19.068 128.348 18.3862 128.163 17.7093C128.028 17.2076 127.895 16.7044 127.762 16.2027C127.678 15.894 127.596 15.5869 127.513 15.2782C127.475 15.1334 127.438 14.9903 127.399 14.8424C127.306 14.5048 127.2 14.1703 127.091 13.8359L126.754 13.6751C126.727 13.8166 126.7 13.9581 126.674 14.1028C125.773 18.7818 124.772 23.4607 123.224 27.9789C123.18 28.1091 123.136 28.2378 123.091 28.3712C122.958 28.7539 122.823 29.135 122.687 29.5177C122.648 29.6302 122.608 29.7444 122.566 29.8617C122.194 30.8747 122.194 30.8747 121.71 31.1947C121.259 31.2413 120.846 31.259 120.394 31.2542C120.193 31.2558 120.193 31.2558 119.988 31.2574C119.546 31.2574 119.103 31.2558 118.66 31.2542H117.738C117.094 31.2542 116.449 31.2526 115.803 31.2494C114.975 31.2461 114.149 31.2461 113.33 31.2461C112.693 31.2477 112.059 31.2461 111.428 31.2445C111.124 31.2445 110.817 31.2429 110.513 31.2445C110.087 31.2445 109.661 31.2413 109.236 31.2397H108.854C108.226 31.2349 107.952 31.2156 107.415 30.8731C107.634 29.6961 107.952 28.5738 108.327 27.4322C108.382 27.2586 108.438 27.0849 108.497 26.9064C108.675 26.3533 108.855 25.8018 109.035 25.2503C109.151 24.8901 109.267 24.53 109.385 24.1698C109.619 23.4479 109.853 22.7259 110.089 21.9991C110.503 20.7225 110.915 19.4426 111.325 18.1724C111.697 17.0147 112.074 15.857 112.453 14.6993C112.981 13.0753 113.5 11.4514 114.013 9.8274C114.077 9.62641 114.139 9.42703 114.205 9.22122C114.526 8.20825 114.846 7.19528 115.165 6.1823C115.287 5.80123 115.406 5.42016 115.527 5.0407C115.581 4.86705 115.635 4.6934 115.692 4.51653C115.845 4.02934 116.003 3.54536 116.165 3.06138C116.22 2.89577 116.274 2.72855 116.332 2.55651L116.5 2.07414C116.549 1.93104 116.597 1.78954 116.648 1.64162C117.021 0.956653 117.632 0.930927 118.381 0.938966L118.361 0.988811Z" fill="#D3A437"/>
  <path d="M75.2826 40.0605C75.3667 40.2197 75.3667 40.2197 75.4508 40.3821C75.5518 40.4304 75.6528 40.477 75.7571 40.5268C77.0545 41.1539 78.1129 42.6332 79.0047 43.7105C79.4439 44.2266 79.9387 44.6784 80.4367 45.1415C80.9416 45.6174 81.4262 46.0998 81.8872 46.6143C82.5166 47.3138 83.2015 47.9553 83.8897 48.592C84.2515 48.9377 84.5863 49.2979 84.9212 49.6693C85.7121 50.5424 86.5804 51.3415 87.4453 52.1455C87.5681 52.2628 87.6926 52.3786 87.8205 52.4992C87.9316 52.6037 88.0443 52.7082 88.1604 52.816C88.4044 53.0829 88.4044 53.0829 88.4044 53.4045C88.4987 53.4414 88.5912 53.4768 88.6888 53.5154C89.1852 53.7839 89.5335 54.1344 89.9189 54.53C90.0367 54.6441 90.1562 54.7583 90.2773 54.8757C90.4018 55.0011 90.5264 55.1249 90.6559 55.2535C90.7737 55.3709 90.8932 55.4883 91.016 55.6105C91.2651 55.9771 91.2651 55.9771 91.2617 56.3903C90.8208 57.437 89.4275 57.9242 88.4011 58.368C84.8169 59.8232 80.4081 60.1367 76.723 58.7829C75.0537 58.1188 73.8119 57.2328 72.5666 55.9851C72.39 55.8131 72.39 55.8131 72.2116 55.6378C70.3269 53.7083 69.5865 51.2483 69.6538 48.6596C69.8002 46.0065 71.1986 43.5786 73.0698 41.6813C73.7631 41.0912 74.4849 40.5654 75.2573 40.0734L75.2826 40.0605Z" fill="#222222"/>
  <path d="M87.2301 11.9226C88.6099 12.9983 89.5859 14.656 89.8383 16.3282C89.8854 17.0276 89.9208 17.7078 89.8804 18.4024C89.8737 18.5342 89.8653 18.6661 89.8585 18.8012C89.559 21.2773 87.5364 23.3836 85.6349 24.9272C85.3152 25.1684 84.9921 25.4048 84.6673 25.6411C84.526 25.7424 84.526 25.7424 84.3829 25.8469C84.0901 26.056 83.7957 26.2602 83.4995 26.4644C83.3211 26.5882 83.1428 26.7104 82.9594 26.8374C82.4798 27.0882 82.4798 27.0882 82.1028 27.0657C79.7807 25.9756 78.2831 22.6601 77.4585 20.4412C76.7518 18.2705 77.0782 16.1964 78.0879 14.1543C78.4698 13.4694 78.8131 12.9436 79.4559 12.45C79.5771 12.3567 79.6982 12.2651 79.8228 12.1702C82.1281 10.5141 84.8036 10.3211 87.2436 11.9065L87.2301 11.9226Z" fill="#222222"/>
</svg>